<svg width="252" height="90" viewBox="0 0 252 90" fill="none" xmlns="http://www.w3.org/2000/svg">
<rect width="252" height="90"/>
<g filter="url(#filter0_d_18_462)">
<path d="M23.9087 53.1429L29.9087 52V58.8571L23.9087 60V53.1429Z" fill="#19304D"/>
</g>
<g filter="url(#filter1_d_18_462)">
<path d="M34.9565 86V6L54.9565 3V82L34.9565 86Z" fill="#19304D"/>
</g>
<g filter="url(#filter2_d_18_462)">
<path fill-rule="evenodd" clip-rule="evenodd" d="M47.8745 48.7044C66.8011 41.8455 76.4671 34.5606 74.6922 29.269C73.122 24.5877 61.0521 24.7056 42.1255 31.5645C23.1989 38.4234 13.975 46.0223 15.5451 50.7036C17.1153 55.3848 28.9479 55.5633 47.8745 48.7044ZM48.1699 49.585C69.0629 42.0135 84.532 31.4989 82.7986 26.3313C81.0653 21.1637 62.7231 23.1124 41.8301 30.6839C20.9371 38.2554 5.40513 48.5825 7.13845 53.7501C8.87177 58.9177 27.2769 57.1565 48.1699 49.585Z" fill="#F0AB75"/>
</g>
<g filter="url(#filter3_d_18_462)">
<path fill-rule="evenodd" clip-rule="evenodd" d="M47.8305 47.588C62.994 42.0928 69.9112 35.9199 68.4961 31.7008C67.0809 27.4817 57.9222 26.9719 42.7586 32.4671C27.5951 37.9623 21.0886 44.149 22.5038 48.3681C23.919 52.5872 32.6669 53.0832 47.8305 47.588ZM48.0924 48.3689C64.8314 42.3028 75.5418 34.8223 73.8446 29.7625C72.104 24.5729 59.2658 25.7099 42.5268 31.776C25.7878 37.8421 14.5895 45.8553 16.1988 50.653C17.7594 55.3058 31.3534 54.435 48.0924 48.3689Z" fill="#F0AB75"/>
</g>
<g filter="url(#filter4_d_18_462)">
<path fill-rule="evenodd" clip-rule="evenodd" d="M47.3439 46.5671C59.1942 42.2726 64.2823 36.6648 63.2448 33.5006C62.2072 30.3365 54.881 29.1186 43.0307 33.4131C31.1804 37.7076 26.8209 43.0994 27.8585 46.2636C28.896 49.4277 35.4936 50.8615 47.3439 46.5671ZM47.5522 47.2023C60.6337 42.4616 68.9053 35.4821 67.6956 31.7928C66.288 27.5 55.8797 27.9634 42.7982 32.704C29.7167 37.4447 21 44.5 23.4688 48.5002C25.9375 52.5004 34.4707 51.9429 47.5522 47.2023Z" fill="#F0AB75"/>
</g>
<g filter="url(#filter5_d_18_462)">
<path d="M34.9565 34V19L54.9565 19V34H34.9565Z" fill="#19304D"/>
</g>
<path d="M34.9565 39V19L45 19V39H34.9565Z" fill="#19304D"/>
<g filter="url(#filter6_d_18_462)">
<path d="M17.8826 19L22.8826 18V24L17.8826 25V19Z" fill="#19304D"/>
</g>
<g filter="url(#filter7_d_18_462)">
<path d="M70 20.4286L77 19V27.5714L70 29V20.4286Z" fill="#19304D"/>
</g>
<g filter="url(#filter8_d_18_462)">
<path d="M88 74V37.6L92.7 36.55V49H98.65L97.55 53.7H92.7V74H88ZM109.296 86.5C108.263 86.5 107.396 86.15 106.696 85.45C105.996 84.75 105.646 83.8833 105.646 82.85V77.4L110.346 78.5V80C110.346 80.4667 110.53 80.8833 110.896 81.25C111.263 81.6167 111.68 81.8 112.146 81.8H113.246C113.713 81.8 114.13 81.6167 114.496 81.25C114.863 80.8833 115.046 80.4667 115.046 80V74H109.296C108.263 74 107.396 73.65 106.696 72.95C105.996 72.25 105.646 71.3833 105.646 70.35V49H110.346V67.5C110.346 67.9667 110.53 68.3833 110.896 68.75C111.263 69.1167 111.68 69.3 112.146 69.3H115.046V49H119.746V82.85C119.746 83.8833 119.396 84.75 118.696 85.45C117.996 86.15 117.146 86.5 116.146 86.5H109.296ZM128.762 86.5V49H139.212C140.245 49 141.112 49.35 141.812 50.05C142.512 50.75 142.862 51.6167 142.862 52.65V70.35C142.862 71.3833 142.512 72.25 141.812 72.95C141.112 73.65 140.245 74 139.212 74H133.462V86.5H128.762ZM133.462 69.3H136.362C136.828 69.3 137.245 69.1167 137.612 68.75C137.978 68.3833 138.162 67.9667 138.162 67.5V55.55C138.162 54.9833 137.978 54.5333 137.612 54.2C137.245 53.8667 136.828 53.7 136.362 53.7H133.462V69.3ZM154.55 74C153.55 74 152.684 73.65 151.95 72.95C151.25 72.2167 150.9 71.35 150.9 70.35V52.6C150.9 51.6 151.25 50.75 151.95 50.05C152.684 49.35 153.55 49 154.55 49H161.35C162.384 49 163.25 49.35 163.95 50.05C164.65 50.75 165 51.6 165 52.6V60.2C165 61.2 164.65 62.0667 163.95 62.8C163.25 63.5 162.384 63.85 161.35 63.85H155.6V67.5C155.6 68 155.767 68.4333 156.1 68.8C156.467 69.1333 156.917 69.3 157.45 69.3H163.95L165 74H154.55ZM155.6 59.15H158.5C159 59.15 159.417 58.9833 159.75 58.65C160.117 58.2833 160.3 57.85 160.3 57.35V55.5C160.3 55 160.117 54.5833 159.75 54.25C159.417 53.8833 159 53.7 158.5 53.7H157.45C156.917 53.7 156.467 53.8833 156.1 54.25C155.767 54.5833 155.6 55 155.6 55.5V59.15ZM172.502 74V49H182.952C183.952 49 184.802 49.3667 185.502 50.1C186.235 50.8 186.602 51.65 186.602 52.65V58.1L181.902 57.05V55.55C181.902 55.05 181.719 54.6167 181.352 54.25C181.019 53.8833 180.602 53.7 180.102 53.7H177.202V74H172.502ZM194.104 42.3V37.6L198.804 36.5V41.2L194.104 42.3ZM194.204 74V50.1L198.904 49V74H194.204ZM211.943 74C210.909 74 210.043 73.65 209.343 72.95C208.643 72.2167 208.293 71.35 208.293 70.35V52.65C208.293 51.65 208.643 50.8 209.343 50.1C210.043 49.3667 210.909 49 211.943 49H218.743C219.743 49 220.593 49.3667 221.293 50.1C221.993 50.8 222.343 51.65 222.343 52.65V70.35C222.343 71.35 221.993 72.2167 221.293 72.95C220.593 73.65 219.743 74 218.743 74H211.943ZM214.793 69.3H215.843C216.343 69.3 216.776 69.1333 217.143 68.8C217.509 68.4333 217.693 68 217.693 67.5V55.5C217.693 55 217.509 54.5833 217.143 54.25C216.776 53.8833 216.343 53.7 215.843 53.7H214.793C214.293 53.7 213.859 53.8833 213.493 54.25C213.159 54.5833 212.993 55 212.993 55.5V67.5C212.993 68 213.159 68.4333 213.493 68.8C213.859 69.1333 214.293 69.3 214.793 69.3ZM230.585 74V49H241.035C242.001 49 242.851 49.35 243.585 50.05C244.318 50.75 244.685 51.6 244.685 52.6V74H239.985V55.5C239.985 54.9667 239.801 54.5333 239.435 54.2C239.068 53.8667 238.651 53.7 238.185 53.7H235.285V74H230.585Z" fill="#19304D"/>
</g>
<defs>
<filter id="filter0_d_18_462" x="23.9087" y="52" width="7" height="9" filterUnits="userSpaceOnUse" color-interpolation-filters="sRGB">
<feFlood flood-opacity="0" result="BackgroundImageFix"/>
<feColorMatrix in="SourceAlpha" type="matrix" values="0 0 0 0 0 0 0 0 0 0 0 0 0 0 0 0 0 0 127 0" result="hardAlpha"/>
<feOffset dx="1" dy="1"/>
<feComposite in2="hardAlpha" operator="out"/>
<feColorMatrix type="matrix" values="0 0 0 0 0.0509804 0 0 0 0 0.0941176 0 0 0 0 0.152941 0 0 0 1 0"/>
<feBlend mode="normal" in2="BackgroundImageFix" result="effect1_dropShadow_18_462"/>
<feBlend mode="normal" in="SourceGraphic" in2="effect1_dropShadow_18_462" result="shape"/>
</filter>
<filter id="filter1_d_18_462" x="34.9565" y="3" width="21" height="84" filterUnits="userSpaceOnUse" color-interpolation-filters="sRGB">
<feFlood flood-opacity="0" result="BackgroundImageFix"/>
<feColorMatrix in="SourceAlpha" type="matrix" values="0 0 0 0 0 0 0 0 0 0 0 0 0 0 0 0 0 0 127 0" result="hardAlpha"/>
<feOffset dx="1" dy="1"/>
<feComposite in2="hardAlpha" operator="out"/>
<feColorMatrix type="matrix" values="0 0 0 0 0.0509804 0 0 0 0 0.0941176 0 0 0 0 0.152941 0 0 0 1 0"/>
<feBlend mode="normal" in2="BackgroundImageFix" result="effect1_dropShadow_18_462"/>
<feBlend mode="normal" in="SourceGraphic" in2="effect1_dropShadow_18_462" result="shape"/>
</filter>
<filter id="filter2_d_18_462" x="7.00635" y="23.441" width="76.4248" height="33.7605" filterUnits="userSpaceOnUse" color-interpolation-filters="sRGB">
<feFlood flood-opacity="0" result="BackgroundImageFix"/>
<feColorMatrix in="SourceAlpha" type="matrix" values="0 0 0 0 0 0 0 0 0 0 0 0 0 0 0 0 0 0 127 0" result="hardAlpha"/>
<feOffset dx="0.5" dy="0.5"/>
<feComposite in2="hardAlpha" operator="out"/>
<feColorMatrix type="matrix" values="0 0 0 0 0.0509804 0 0 0 0 0.0941176 0 0 0 0 0.152941 0 0 0 1 0"/>
<feBlend mode="normal" in2="BackgroundImageFix" result="effect1_dropShadow_18_462"/>
<feBlend mode="normal" in="SourceGraphic" in2="effect1_dropShadow_18_462" result="shape"/>
</filter>
<filter id="filter3_d_18_462" x="16.0453" y="26.4662" width="58.4756" height="27.6513" filterUnits="userSpaceOnUse" color-interpolation-filters="sRGB">
<feFlood flood-opacity="0" result="BackgroundImageFix"/>
<feColorMatrix in="SourceAlpha" type="matrix" values="0 0 0 0 0 0 0 0 0 0 0 0 0 0 0 0 0 0 127 0" result="hardAlpha"/>
<feOffset dx="0.5" dy="0.5"/>
<feComposite in2="hardAlpha" operator="out"/>
<feColorMatrix type="matrix" values="0 0 0 0 0.0509804 0 0 0 0 0.0941176 0 0 0 0 0.152941 0 0 0 1 0"/>
<feBlend mode="normal" in2="BackgroundImageFix" result="effect1_dropShadow_18_462"/>
<feBlend mode="normal" in="SourceGraphic" in2="effect1_dropShadow_18_462" result="shape"/>
</filter>
<filter id="filter4_d_18_462" x="23.0504" y="28.8412" width="45.2622" height="22.8246" filterUnits="userSpaceOnUse" color-interpolation-filters="sRGB">
<feFlood flood-opacity="0" result="BackgroundImageFix"/>
<feColorMatrix in="SourceAlpha" type="matrix" values="0 0 0 0 0 0 0 0 0 0 0 0 0 0 0 0 0 0 127 0" result="hardAlpha"/>
<feOffset dx="0.5" dy="0.5"/>
<feComposite in2="hardAlpha" operator="out"/>
<feColorMatrix type="matrix" values="0 0 0 0 0.0509804 0 0 0 0 0.0941176 0 0 0 0 0.152941 0 0 0 1 0"/>
<feBlend mode="normal" in2="BackgroundImageFix" result="effect1_dropShadow_18_462"/>
<feBlend mode="normal" in="SourceGraphic" in2="effect1_dropShadow_18_462" result="shape"/>
</filter>
<filter id="filter5_d_18_462" x="34.9565" y="19" width="21" height="15" filterUnits="userSpaceOnUse" color-interpolation-filters="sRGB">
<feFlood flood-opacity="0" result="BackgroundImageFix"/>
<feColorMatrix in="SourceAlpha" type="matrix" values="0 0 0 0 0 0 0 0 0 0 0 0 0 0 0 0 0 0 127 0" result="hardAlpha"/>
<feOffset dx="1"/>
<feComposite in2="hardAlpha" operator="out"/>
<feColorMatrix type="matrix" values="0 0 0 0 0.0509804 0 0 0 0 0.0941176 0 0 0 0 0.152941 0 0 0 1 0"/>
<feBlend mode="normal" in2="BackgroundImageFix" result="effect1_dropShadow_18_462"/>
<feBlend mode="normal" in="SourceGraphic" in2="effect1_dropShadow_18_462" result="shape"/>
</filter>
<filter id="filter6_d_18_462" x="17.8826" y="18" width="6" height="8" filterUnits="userSpaceOnUse" color-interpolation-filters="sRGB">
<feFlood flood-opacity="0" result="BackgroundImageFix"/>
<feColorMatrix in="SourceAlpha" type="matrix" values="0 0 0 0 0 0 0 0 0 0 0 0 0 0 0 0 0 0 127 0" result="hardAlpha"/>
<feOffset dx="1" dy="1"/>
<feComposite in2="hardAlpha" operator="out"/>
<feColorMatrix type="matrix" values="0 0 0 0 0.0509804 0 0 0 0 0.0941176 0 0 0 0 0.152941 0 0 0 1 0"/>
<feBlend mode="normal" in2="BackgroundImageFix" result="effect1_dropShadow_18_462"/>
<feBlend mode="normal" in="SourceGraphic" in2="effect1_dropShadow_18_462" result="shape"/>
</filter>
<filter id="filter7_d_18_462" x="70" y="19" width="8" height="11" filterUnits="userSpaceOnUse" color-interpolation-filters="sRGB">
<feFlood flood-opacity="0" result="BackgroundImageFix"/>
<feColorMatrix in="SourceAlpha" type="matrix" values="0 0 0 0 0 0 0 0 0 0 0 0 0 0 0 0 0 0 127 0" result="hardAlpha"/>
<feOffset dx="1" dy="1"/>
<feComposite in2="hardAlpha" operator="out"/>
<feColorMatrix type="matrix" values="0 0 0 0 0.0509804 0 0 0 0 0.0941176 0 0 0 0 0.152941 0 0 0 1 0"/>
<feBlend mode="normal" in2="BackgroundImageFix" result="effect1_dropShadow_18_462"/>
<feBlend mode="normal" in="SourceGraphic" in2="effect1_dropShadow_18_462" result="shape"/>
</filter>
<filter id="filter8_d_18_462" x="88" y="36.5" width="157.685" height="51" filterUnits="userSpaceOnUse" color-interpolation-filters="sRGB">
<feFlood flood-opacity="0" result="BackgroundImageFix"/>
<feColorMatrix in="SourceAlpha" type="matrix" values="0 0 0 0 0 0 0 0 0 0 0 0 0 0 0 0 0 0 127 0" result="hardAlpha"/>
<feOffset dx="1" dy="1"/>
<feComposite in2="hardAlpha" operator="out"/>
<feColorMatrix type="matrix" values="0 0 0 0 0.0490196 0 0 0 0 0.0941176 0 0 0 0 0.15098 0 0 0 1 0"/>
<feBlend mode="normal" in2="BackgroundImageFix" result="effect1_dropShadow_18_462"/>
<feBlend mode="normal" in="SourceGraphic" in2="effect1_dropShadow_18_462" result="shape"/>
</filter>
</defs>
</svg>
