<svg width="90" height="90" viewBox="0 0 90 90" fill="none" xmlns="http://www.w3.org/2000/svg">
<g clip-path="url(#clip0_14_391)">
<rect width="90" height="90"/>
<g filter="url(#filter0_d_14_391)">
<path d="M23.9087 53.1429L29.9087 52V58.8571L23.9087 60V53.1429Z" fill="white"/>
</g>
<g filter="url(#filter1_d_14_391)">
<path d="M34.9565 86V6L54.9565 3V82L34.9565 86Z" fill="white"/>
</g>
<g filter="url(#filter2_d_14_391)">
<path fill-rule="evenodd" clip-rule="evenodd" d="M47.8745 48.7044C66.8011 41.8455 76.4671 34.5606 74.6922 29.269C73.122 24.5877 61.0521 24.7056 42.1255 31.5645C23.1989 38.4234 13.975 46.0223 15.5451 50.7036C17.1153 55.3848 28.9479 55.5633 47.8745 48.7044ZM48.1699 49.585C69.0629 42.0135 84.532 31.4989 82.7986 26.3313C81.0653 21.1637 62.7231 23.1124 41.8301 30.6839C20.9371 38.2554 5.40513 48.5825 7.13845 53.7501C8.87177 58.9177 27.2769 57.1565 48.1699 49.585Z" fill="#F0AB75"/>
</g>
<g filter="url(#filter3_d_14_391)">
<path fill-rule="evenodd" clip-rule="evenodd" d="M47.8305 47.588C62.994 42.0928 69.9112 35.9199 68.4961 31.7008C67.0809 27.4817 57.9222 26.9719 42.7586 32.4671C27.5951 37.9623 21.0886 44.149 22.5038 48.3681C23.919 52.5872 32.6669 53.0832 47.8305 47.588ZM48.0924 48.3689C64.8314 42.3028 75.5418 34.8223 73.8446 29.7625C72.104 24.5729 59.2658 25.7099 42.5268 31.776C25.7878 37.8421 14.5895 45.8553 16.1988 50.653C17.7594 55.3058 31.3534 54.435 48.0924 48.3689Z" fill="#F0AB75"/>
</g>
<g filter="url(#filter4_d_14_391)">
<path fill-rule="evenodd" clip-rule="evenodd" d="M47.3438 46.5671C59.1941 42.2726 64.2822 36.6647 63.2447 33.5006C62.2071 30.3364 54.8809 29.1186 43.0306 33.4131C31.1803 37.7076 26.8208 43.0994 27.8584 46.2636C28.8959 49.4277 35.4935 50.8615 47.3438 46.5671ZM47.5521 47.2023C60.6336 42.4616 68.9052 35.482 67.6955 31.7928C66.4193 27.9008 55.8796 27.9633 42.7981 32.704C29.7166 37.4447 22.1601 45.2629 23.4687 48.5002C24.7772 51.7374 34.4706 51.9429 47.5521 47.2023Z" fill="#F0AB75"/>
</g>
<g filter="url(#filter5_d_14_391)">
<path d="M34.9565 34V19L54.9565 19V34H34.9565Z" fill="white"/>
</g>
<path d="M34.9565 39V19L45 19V39H34.9565Z" fill="white"/>
<g filter="url(#filter6_d_14_391)">
<path d="M17.8826 19L22.8826 18V24L17.8826 25V19Z" fill="white"/>
</g>
<g filter="url(#filter7_d_14_391)">
<path d="M73.1217 31.4286L80.1217 30V38.5714L73.1217 40V31.4286Z" fill="white"/>
</g>
</g>
<defs>
<filter id="filter0_d_14_391" x="23.9087" y="52" width="7" height="9" filterUnits="userSpaceOnUse" color-interpolation-filters="sRGB">
<feFlood flood-opacity="0" result="BackgroundImageFix"/>
<feColorMatrix in="SourceAlpha" type="matrix" values="0 0 0 0 0 0 0 0 0 0 0 0 0 0 0 0 0 0 127 0" result="hardAlpha"/>
<feOffset dx="1" dy="1"/>
<feComposite in2="hardAlpha" operator="out"/>
<feColorMatrix type="matrix" values="0 0 0 0 0.245098 0 0 0 0 0.470588 0 0 0 0 0.754902 0 0 0 1 0"/>
<feBlend mode="normal" in2="BackgroundImageFix" result="effect1_dropShadow_14_391"/>
<feBlend mode="normal" in="SourceGraphic" in2="effect1_dropShadow_14_391" result="shape"/>
</filter>
<filter id="filter1_d_14_391" x="34.9565" y="3" width="21" height="84" filterUnits="userSpaceOnUse" color-interpolation-filters="sRGB">
<feFlood flood-opacity="0" result="BackgroundImageFix"/>
<feColorMatrix in="SourceAlpha" type="matrix" values="0 0 0 0 0 0 0 0 0 0 0 0 0 0 0 0 0 0 127 0" result="hardAlpha"/>
<feOffset dx="1" dy="1"/>
<feComposite in2="hardAlpha" operator="out"/>
<feColorMatrix type="matrix" values="0 0 0 0 0.247059 0 0 0 0 0.470588 0 0 0 0 0.752941 0 0 0 1 0"/>
<feBlend mode="normal" in2="BackgroundImageFix" result="effect1_dropShadow_14_391"/>
<feBlend mode="normal" in="SourceGraphic" in2="effect1_dropShadow_14_391" result="shape"/>
</filter>
<filter id="filter2_d_14_391" x="7.00635" y="23.441" width="76.4248" height="33.7605" filterUnits="userSpaceOnUse" color-interpolation-filters="sRGB">
<feFlood flood-opacity="0" result="BackgroundImageFix"/>
<feColorMatrix in="SourceAlpha" type="matrix" values="0 0 0 0 0 0 0 0 0 0 0 0 0 0 0 0 0 0 127 0" result="hardAlpha"/>
<feOffset dx="0.5" dy="0.5"/>
<feComposite in2="hardAlpha" operator="out"/>
<feColorMatrix type="matrix" values="0 0 0 0 0.0509804 0 0 0 0 0.0941176 0 0 0 0 0.152941 0 0 0 1 0"/>
<feBlend mode="normal" in2="BackgroundImageFix" result="effect1_dropShadow_14_391"/>
<feBlend mode="normal" in="SourceGraphic" in2="effect1_dropShadow_14_391" result="shape"/>
</filter>
<filter id="filter3_d_14_391" x="16.0453" y="26.4662" width="58.4756" height="27.6513" filterUnits="userSpaceOnUse" color-interpolation-filters="sRGB">
<feFlood flood-opacity="0" result="BackgroundImageFix"/>
<feColorMatrix in="SourceAlpha" type="matrix" values="0 0 0 0 0 0 0 0 0 0 0 0 0 0 0 0 0 0 127 0" result="hardAlpha"/>
<feOffset dx="0.5" dy="0.5"/>
<feComposite in2="hardAlpha" operator="out"/>
<feColorMatrix type="matrix" values="0 0 0 0 0.0509804 0 0 0 0 0.0941176 0 0 0 0 0.152941 0 0 0 1 0"/>
<feBlend mode="normal" in2="BackgroundImageFix" result="effect1_dropShadow_14_391"/>
<feBlend mode="normal" in="SourceGraphic" in2="effect1_dropShadow_14_391" result="shape"/>
</filter>
<filter id="filter4_d_14_391" x="23.3224" y="29.0009" width="44.9901" height="22.3562" filterUnits="userSpaceOnUse" color-interpolation-filters="sRGB">
<feFlood flood-opacity="0" result="BackgroundImageFix"/>
<feColorMatrix in="SourceAlpha" type="matrix" values="0 0 0 0 0 0 0 0 0 0 0 0 0 0 0 0 0 0 127 0" result="hardAlpha"/>
<feOffset dx="0.5" dy="0.5"/>
<feComposite in2="hardAlpha" operator="out"/>
<feColorMatrix type="matrix" values="0 0 0 0 0.0509804 0 0 0 0 0.0941176 0 0 0 0 0.152941 0 0 0 1 0"/>
<feBlend mode="normal" in2="BackgroundImageFix" result="effect1_dropShadow_14_391"/>
<feBlend mode="normal" in="SourceGraphic" in2="effect1_dropShadow_14_391" result="shape"/>
</filter>
<filter id="filter5_d_14_391" x="34.9565" y="19" width="21" height="15" filterUnits="userSpaceOnUse" color-interpolation-filters="sRGB">
<feFlood flood-opacity="0" result="BackgroundImageFix"/>
<feColorMatrix in="SourceAlpha" type="matrix" values="0 0 0 0 0 0 0 0 0 0 0 0 0 0 0 0 0 0 127 0" result="hardAlpha"/>
<feOffset dx="1"/>
<feComposite in2="hardAlpha" operator="out"/>
<feColorMatrix type="matrix" values="0 0 0 0 0.247059 0 0 0 0 0.470588 0 0 0 0 0.752941 0 0 0 1 0"/>
<feBlend mode="normal" in2="BackgroundImageFix" result="effect1_dropShadow_14_391"/>
<feBlend mode="normal" in="SourceGraphic" in2="effect1_dropShadow_14_391" result="shape"/>
</filter>
<filter id="filter6_d_14_391" x="17.8826" y="18" width="6" height="8" filterUnits="userSpaceOnUse" color-interpolation-filters="sRGB">
<feFlood flood-opacity="0" result="BackgroundImageFix"/>
<feColorMatrix in="SourceAlpha" type="matrix" values="0 0 0 0 0 0 0 0 0 0 0 0 0 0 0 0 0 0 127 0" result="hardAlpha"/>
<feOffset dx="1" dy="1"/>
<feComposite in2="hardAlpha" operator="out"/>
<feColorMatrix type="matrix" values="0 0 0 0 0.245098 0 0 0 0 0.470588 0 0 0 0 0.754902 0 0 0 1 0"/>
<feBlend mode="normal" in2="BackgroundImageFix" result="effect1_dropShadow_14_391"/>
<feBlend mode="normal" in="SourceGraphic" in2="effect1_dropShadow_14_391" result="shape"/>
</filter>
<filter id="filter7_d_14_391" x="73.1217" y="30" width="8" height="11" filterUnits="userSpaceOnUse" color-interpolation-filters="sRGB">
<feFlood flood-opacity="0" result="BackgroundImageFix"/>
<feColorMatrix in="SourceAlpha" type="matrix" values="0 0 0 0 0 0 0 0 0 0 0 0 0 0 0 0 0 0 127 0" result="hardAlpha"/>
<feOffset dx="1" dy="1"/>
<feComposite in2="hardAlpha" operator="out"/>
<feColorMatrix type="matrix" values="0 0 0 0 0.245098 0 0 0 0 0.470588 0 0 0 0 0.754902 0 0 0 1 0"/>
<feBlend mode="normal" in2="BackgroundImageFix" result="effect1_dropShadow_14_391"/>
<feBlend mode="normal" in="SourceGraphic" in2="effect1_dropShadow_14_391" result="shape"/>
</filter>
<clipPath id="clip0_14_391">
<rect width="90" height="90" fill="white"/>
</clipPath>
</defs>
</svg>
