<svg width="227" height="90" viewBox="0 0 227 90" fill="none" xmlns="http://www.w3.org/2000/svg">
<rect width="227" height="90"/>
<g filter="url(#filter0_d_14_376)">
<path d="M23.9087 53.1429L29.9087 52V58.8571L23.9087 60V53.1429Z" fill="#19304D"/>
</g>
<g filter="url(#filter1_d_14_376)">
<path d="M34.9565 86V6L54.9565 3V82L34.9565 86Z" fill="#19304D"/>
</g>
<g filter="url(#filter2_d_14_376)">
<path fill-rule="evenodd" clip-rule="evenodd" d="M47.8745 48.7044C66.8011 41.8455 76.4671 34.5606 74.6922 29.269C73.122 24.5877 61.0521 24.7056 42.1255 31.5645C23.1989 38.4234 13.975 46.0223 15.5451 50.7036C17.1153 55.3848 28.9479 55.5633 47.8745 48.7044ZM48.1699 49.585C69.0629 42.0135 84.532 31.4989 82.7986 26.3313C81.0653 21.1637 62.7231 23.1124 41.8301 30.6839C20.9371 38.2554 5.40513 48.5825 7.13845 53.7501C8.87177 58.9177 27.2769 57.1565 48.1699 49.585Z" fill="#F0AB75"/>
</g>
<g filter="url(#filter3_d_14_376)">
<path fill-rule="evenodd" clip-rule="evenodd" d="M47.8305 47.588C62.994 42.0928 69.9112 35.9199 68.4961 31.7008C67.0809 27.4817 57.9222 26.9719 42.7586 32.4671C27.5951 37.9623 21.0886 44.149 22.5038 48.3681C23.919 52.5872 32.6669 53.0832 47.8305 47.588ZM48.0924 48.3689C64.8314 42.3028 75.5418 34.8223 73.8446 29.7625C72.104 24.5729 59.2658 25.7099 42.5268 31.776C25.7878 37.8421 14.5895 45.8553 16.1988 50.653C17.7594 55.3058 31.3534 54.435 48.0924 48.3689Z" fill="#F0AB75"/>
</g>
<g filter="url(#filter4_d_14_376)">
<path fill-rule="evenodd" clip-rule="evenodd" d="M47.3438 46.5671C59.1941 42.2726 64.2822 36.6647 63.2447 33.5006C62.2071 30.3364 54.8809 29.1186 43.0306 33.4131C31.1803 37.7076 26.8208 43.0994 27.8584 46.2636C28.8959 49.4277 35.4935 50.8615 47.3438 46.5671ZM47.5521 47.2023C60.6336 42.4616 68.9052 35.482 67.6955 31.7928C66.4193 27.9008 55.8796 27.9633 42.7981 32.704C29.7166 37.4447 22.1601 45.2629 23.4687 48.5002C24.7772 51.7374 34.4706 51.9429 47.5521 47.2023Z" fill="#F0AB75"/>
</g>
<g filter="url(#filter5_d_14_376)">
<path d="M34.9565 34V19L54.9565 19V34H34.9565Z" fill="#19304D"/>
</g>
<path d="M34.9565 39V19L45 19V39H34.9565Z" fill="#19304D"/>
<g filter="url(#filter6_d_14_376)">
<path d="M17.8826 19L22.8826 18V24L17.8826 25V19Z" fill="#19304D"/>
</g>
<g filter="url(#filter7_d_14_376)">
<path d="M73.1217 31.4286L80.1217 30V38.5714L73.1217 40V31.4286Z" fill="#19304D"/>
</g>
<g filter="url(#filter8_d_14_376)">
<path d="M63 74V37.6L67.7 36.55V49H73.65L72.55 53.7H67.7V74H63ZM84.2965 86.5C83.2632 86.5 82.3965 86.15 81.6965 85.45C80.9965 84.75 80.6465 83.8833 80.6465 82.85V77.4L85.3465 78.5V80C85.3465 80.4667 85.5298 80.8833 85.8965 81.25C86.2632 81.6167 86.6798 81.8 87.1465 81.8H88.2465C88.7132 81.8 89.1298 81.6167 89.4965 81.25C89.8632 80.8833 90.0465 80.4667 90.0465 80V74H84.2965C83.2632 74 82.3965 73.65 81.6965 72.95C80.9965 72.25 80.6465 71.3833 80.6465 70.35V49H85.3465V67.5C85.3465 67.9667 85.5298 68.3833 85.8965 68.75C86.2632 69.1167 86.6798 69.3 87.1465 69.3H90.0465V49H94.7465V82.85C94.7465 83.8833 94.3965 84.75 93.6965 85.45C92.9965 86.15 92.1465 86.5 91.1465 86.5H84.2965ZM103.762 86.5V49H114.212C115.245 49 116.112 49.35 116.812 50.05C117.512 50.75 117.862 51.6167 117.862 52.65V70.35C117.862 71.3833 117.512 72.25 116.812 72.95C116.112 73.65 115.245 74 114.212 74H108.462V86.5H103.762ZM108.462 69.3H111.362C111.828 69.3 112.245 69.1167 112.612 68.75C112.978 68.3833 113.162 67.9667 113.162 67.5V55.55C113.162 54.9833 112.978 54.5333 112.612 54.2C112.245 53.8667 111.828 53.7 111.362 53.7H108.462V69.3ZM129.55 74C128.55 74 127.684 73.65 126.95 72.95C126.25 72.2167 125.9 71.35 125.9 70.35V52.6C125.9 51.6 126.25 50.75 126.95 50.05C127.684 49.35 128.55 49 129.55 49H136.35C137.384 49 138.25 49.35 138.95 50.05C139.65 50.75 140 51.6 140 52.6V60.2C140 61.2 139.65 62.0667 138.95 62.8C138.25 63.5 137.384 63.85 136.35 63.85H130.6V67.5C130.6 68 130.767 68.4333 131.1 68.8C131.467 69.1333 131.917 69.3 132.45 69.3H138.95L140 74H129.55ZM130.6 59.15H133.5C134 59.15 134.417 58.9833 134.75 58.65C135.117 58.2833 135.3 57.85 135.3 57.35V55.5C135.3 55 135.117 54.5833 134.75 54.25C134.417 53.8833 134 53.7 133.5 53.7H132.45C131.917 53.7 131.467 53.8833 131.1 54.25C130.767 54.5833 130.6 55 130.6 55.5V59.15ZM147.502 74V49H157.952C158.952 49 159.802 49.3667 160.502 50.1C161.235 50.8 161.602 51.65 161.602 52.65V58.1L156.902 57.05V55.55C156.902 55.05 156.719 54.6167 156.352 54.25C156.019 53.8833 155.602 53.7 155.102 53.7H152.202V74H147.502ZM169.104 42.3V37.6L173.804 36.5V41.2L169.104 42.3ZM169.204 74V50.1L173.904 49V74H169.204ZM186.943 74C185.909 74 185.043 73.65 184.343 72.95C183.643 72.2167 183.293 71.35 183.293 70.35V52.65C183.293 51.65 183.643 50.8 184.343 50.1C185.043 49.3667 185.909 49 186.943 49H193.743C194.743 49 195.593 49.3667 196.293 50.1C196.993 50.8 197.343 51.65 197.343 52.65V70.35C197.343 71.35 196.993 72.2167 196.293 72.95C195.593 73.65 194.743 74 193.743 74H186.943ZM189.793 69.3H190.843C191.343 69.3 191.776 69.1333 192.143 68.8C192.509 68.4333 192.693 68 192.693 67.5V55.5C192.693 55 192.509 54.5833 192.143 54.25C191.776 53.8833 191.343 53.7 190.843 53.7H189.793C189.293 53.7 188.859 53.8833 188.493 54.25C188.159 54.5833 187.993 55 187.993 55.5V67.5C187.993 68 188.159 68.4333 188.493 68.8C188.859 69.1333 189.293 69.3 189.793 69.3ZM205.585 74V49H216.035C217.001 49 217.851 49.35 218.585 50.05C219.318 50.75 219.685 51.6 219.685 52.6V74H214.985V55.5C214.985 54.9667 214.801 54.5333 214.435 54.2C214.068 53.8667 213.651 53.7 213.185 53.7H210.285V74H205.585Z" fill="#19304D"/>
</g>
<defs>
<filter id="filter0_d_14_376" x="23.9087" y="52" width="7" height="9" filterUnits="userSpaceOnUse" color-interpolation-filters="sRGB">
<feFlood flood-opacity="0" result="BackgroundImageFix"/>
<feColorMatrix in="SourceAlpha" type="matrix" values="0 0 0 0 0 0 0 0 0 0 0 0 0 0 0 0 0 0 127 0" result="hardAlpha"/>
<feOffset dx="1" dy="1"/>
<feComposite in2="hardAlpha" operator="out"/>
<feColorMatrix type="matrix" values="0 0 0 0 0.0509804 0 0 0 0 0.0941176 0 0 0 0 0.152941 0 0 0 1 0"/>
<feBlend mode="normal" in2="BackgroundImageFix" result="effect1_dropShadow_14_376"/>
<feBlend mode="normal" in="SourceGraphic" in2="effect1_dropShadow_14_376" result="shape"/>
</filter>
<filter id="filter1_d_14_376" x="34.9565" y="3" width="21" height="84" filterUnits="userSpaceOnUse" color-interpolation-filters="sRGB">
<feFlood flood-opacity="0" result="BackgroundImageFix"/>
<feColorMatrix in="SourceAlpha" type="matrix" values="0 0 0 0 0 0 0 0 0 0 0 0 0 0 0 0 0 0 127 0" result="hardAlpha"/>
<feOffset dx="1" dy="1"/>
<feComposite in2="hardAlpha" operator="out"/>
<feColorMatrix type="matrix" values="0 0 0 0 0.0509804 0 0 0 0 0.0941176 0 0 0 0 0.152941 0 0 0 1 0"/>
<feBlend mode="normal" in2="BackgroundImageFix" result="effect1_dropShadow_14_376"/>
<feBlend mode="normal" in="SourceGraphic" in2="effect1_dropShadow_14_376" result="shape"/>
</filter>
<filter id="filter2_d_14_376" x="7.00635" y="23.441" width="76.4248" height="33.7605" filterUnits="userSpaceOnUse" color-interpolation-filters="sRGB">
<feFlood flood-opacity="0" result="BackgroundImageFix"/>
<feColorMatrix in="SourceAlpha" type="matrix" values="0 0 0 0 0 0 0 0 0 0 0 0 0 0 0 0 0 0 127 0" result="hardAlpha"/>
<feOffset dx="0.5" dy="0.5"/>
<feComposite in2="hardAlpha" operator="out"/>
<feColorMatrix type="matrix" values="0 0 0 0 0.0509804 0 0 0 0 0.0941176 0 0 0 0 0.152941 0 0 0 1 0"/>
<feBlend mode="normal" in2="BackgroundImageFix" result="effect1_dropShadow_14_376"/>
<feBlend mode="normal" in="SourceGraphic" in2="effect1_dropShadow_14_376" result="shape"/>
</filter>
<filter id="filter3_d_14_376" x="16.0453" y="26.4662" width="58.4756" height="27.6513" filterUnits="userSpaceOnUse" color-interpolation-filters="sRGB">
<feFlood flood-opacity="0" result="BackgroundImageFix"/>
<feColorMatrix in="SourceAlpha" type="matrix" values="0 0 0 0 0 0 0 0 0 0 0 0 0 0 0 0 0 0 127 0" result="hardAlpha"/>
<feOffset dx="0.5" dy="0.5"/>
<feComposite in2="hardAlpha" operator="out"/>
<feColorMatrix type="matrix" values="0 0 0 0 0.0509804 0 0 0 0 0.0941176 0 0 0 0 0.152941 0 0 0 1 0"/>
<feBlend mode="normal" in2="BackgroundImageFix" result="effect1_dropShadow_14_376"/>
<feBlend mode="normal" in="SourceGraphic" in2="effect1_dropShadow_14_376" result="shape"/>
</filter>
<filter id="filter4_d_14_376" x="23.3224" y="29.0009" width="44.9901" height="22.3562" filterUnits="userSpaceOnUse" color-interpolation-filters="sRGB">
<feFlood flood-opacity="0" result="BackgroundImageFix"/>
<feColorMatrix in="SourceAlpha" type="matrix" values="0 0 0 0 0 0 0 0 0 0 0 0 0 0 0 0 0 0 127 0" result="hardAlpha"/>
<feOffset dx="0.5" dy="0.5"/>
<feComposite in2="hardAlpha" operator="out"/>
<feColorMatrix type="matrix" values="0 0 0 0 0.0509804 0 0 0 0 0.0941176 0 0 0 0 0.152941 0 0 0 1 0"/>
<feBlend mode="normal" in2="BackgroundImageFix" result="effect1_dropShadow_14_376"/>
<feBlend mode="normal" in="SourceGraphic" in2="effect1_dropShadow_14_376" result="shape"/>
</filter>
<filter id="filter5_d_14_376" x="34.9565" y="19" width="21" height="15" filterUnits="userSpaceOnUse" color-interpolation-filters="sRGB">
<feFlood flood-opacity="0" result="BackgroundImageFix"/>
<feColorMatrix in="SourceAlpha" type="matrix" values="0 0 0 0 0 0 0 0 0 0 0 0 0 0 0 0 0 0 127 0" result="hardAlpha"/>
<feOffset dx="1"/>
<feComposite in2="hardAlpha" operator="out"/>
<feColorMatrix type="matrix" values="0 0 0 0 0.0509804 0 0 0 0 0.0941176 0 0 0 0 0.152941 0 0 0 1 0"/>
<feBlend mode="normal" in2="BackgroundImageFix" result="effect1_dropShadow_14_376"/>
<feBlend mode="normal" in="SourceGraphic" in2="effect1_dropShadow_14_376" result="shape"/>
</filter>
<filter id="filter6_d_14_376" x="17.8826" y="18" width="6" height="8" filterUnits="userSpaceOnUse" color-interpolation-filters="sRGB">
<feFlood flood-opacity="0" result="BackgroundImageFix"/>
<feColorMatrix in="SourceAlpha" type="matrix" values="0 0 0 0 0 0 0 0 0 0 0 0 0 0 0 0 0 0 127 0" result="hardAlpha"/>
<feOffset dx="1" dy="1"/>
<feComposite in2="hardAlpha" operator="out"/>
<feColorMatrix type="matrix" values="0 0 0 0 0.0509804 0 0 0 0 0.0941176 0 0 0 0 0.152941 0 0 0 1 0"/>
<feBlend mode="normal" in2="BackgroundImageFix" result="effect1_dropShadow_14_376"/>
<feBlend mode="normal" in="SourceGraphic" in2="effect1_dropShadow_14_376" result="shape"/>
</filter>
<filter id="filter7_d_14_376" x="73.1217" y="30" width="8" height="11" filterUnits="userSpaceOnUse" color-interpolation-filters="sRGB">
<feFlood flood-opacity="0" result="BackgroundImageFix"/>
<feColorMatrix in="SourceAlpha" type="matrix" values="0 0 0 0 0 0 0 0 0 0 0 0 0 0 0 0 0 0 127 0" result="hardAlpha"/>
<feOffset dx="1" dy="1"/>
<feComposite in2="hardAlpha" operator="out"/>
<feColorMatrix type="matrix" values="0 0 0 0 0.0509804 0 0 0 0 0.0941176 0 0 0 0 0.152941 0 0 0 1 0"/>
<feBlend mode="normal" in2="BackgroundImageFix" result="effect1_dropShadow_14_376"/>
<feBlend mode="normal" in="SourceGraphic" in2="effect1_dropShadow_14_376" result="shape"/>
</filter>
<filter id="filter8_d_14_376" x="63" y="36.5" width="157.685" height="51" filterUnits="userSpaceOnUse" color-interpolation-filters="sRGB">
<feFlood flood-opacity="0" result="BackgroundImageFix"/>
<feColorMatrix in="SourceAlpha" type="matrix" values="0 0 0 0 0 0 0 0 0 0 0 0 0 0 0 0 0 0 127 0" result="hardAlpha"/>
<feOffset dx="1" dy="1"/>
<feComposite in2="hardAlpha" operator="out"/>
<feColorMatrix type="matrix" values="0 0 0 0 0.0490196 0 0 0 0 0.0941176 0 0 0 0 0.15098 0 0 0 1 0"/>
<feBlend mode="normal" in2="BackgroundImageFix" result="effect1_dropShadow_14_376"/>
<feBlend mode="normal" in="SourceGraphic" in2="effect1_dropShadow_14_376" result="shape"/>
</filter>
</defs>
</svg>
